<?xml version="1.0" encoding="utf-8"?>
<!-- Generator: Adobe Illustrator 22.1.0, SVG Export Plug-In . SVG Version: 6.00 Build 0)  -->
<svg version="1.1" id="图层_1" xmlns="http://www.w3.org/2000/svg" xmlns:xlink="http://www.w3.org/1999/xlink" x="0px" y="0px"
	 viewBox="0 0 49 88" style="enable-background:new 0 0 49 88;" xml:space="preserve">
<style type="text/css">
	.st0{fill:#828282;}
	.st1{fill:#333333;}
	.st2{fill:#ABDA58;}
</style>
<path class="st0" d="M17.3,82.3c0,2.8,3.2,5.1,7.2,5.1s7.2-2.3,7.2-5.1s-3.2-5.1-7.2-5.1S17.3,79.4,17.3,82.3z"/>
<path d="M21,82c0,0.9,1.5,1.7,3.5,1.7S28,82.9,28,82l0,0c0-0.9-1.5-1.7-3.5-1.7S21,81,21,82z"/>
<path class="st1" d="M49,26.5c0,12.2-8.9,22.3-20.5,24.2c-1.2,0.2-2,1.2-2,2.4v27.4c0,1-0.9,1.9-1.9,1.9h0c-1,0-1.9-0.9-1.9-1.9
	V53.1c0-1.2-0.9-2.2-2-2.4C8.9,48.8,0,38.7,0,26.5C0,13,11,2,24.5,2S49,13,49,26.5z"/>
<path class="st2" d="M17.3,26.5c0,4,3.2,7.2,7.2,7.2s7.2-3.2,7.2-7.2l0,0c0-4-3.2-7.2-7.2-7.2S17.3,22.5,17.3,26.5L17.3,26.5z"/>
</svg>
